# xmcd
#
# Track frame offsets:
#	150
#	16875
#	33900
#
# Disc length: 738 seconds
#
# Revision: 0
# Processed by: cddbd v1.5.2PL0 Copyright (c) Steve Scherf et al.
# Submitted via: audiograbber 1.83.01
#
DISCID=1602e003
DTITLE=Tauski - Taas Nuori Oon [CDSr)
DYEAR=2007
DGENRE=Dance
TTITLE0=Taas Nuori Oon
TTITLE1=Taas Nuori Oon (Remix Radio Edit)
TTITLE2=Taas Nuori Oon (Summer Dance Remix)
EXTD=TR.
EXTT0=
EXTT1=
EXTT2=
PLAYORDER=
